<svg width="622.6" height="430.1" xmlns="http://www.w3.org/2000/svg" xmlns:xlink="http://www.w3.org/1999/xlink"><line x1="203.4375" y1="7.5" x2="73.5" y2="32.0" style="stroke:black; stroke-width:1px;" />
<line x1="73.5" y1="39.5" x2="30.0" y2="64.0" style="stroke:black; stroke-width:1px;" />
<line x1="30.0" y1="71.5" x2="30.0" y2="96.0" style="stroke:black; stroke-width:1px;" />
<line x1="73.5" y1="39.5" x2="72.0" y2="64.0" style="stroke:black; stroke-width:1px;" />
<line x1="73.5" y1="39.5" x2="117.0" y2="64.0" style="stroke:black; stroke-width:1px;" />
<line x1="117.0" y1="71.5" x2="63.75" y2="96.0" style="stroke:black; stroke-width:1px;" />
<line x1="117.0" y1="71.5" x2="82.25" y2="96.0" style="stroke:black; stroke-width:1px;" />
<line x1="117.0" y1="71.5" x2="126.25" y2="96.0" style="stroke:black; stroke-width:1px;" />
<line x1="126.25" y1="103.5" x2="126.25" y2="128.0" style="stroke:black; stroke-width:1px;" />
<line x1="117.0" y1="71.5" x2="170.25" y2="96.0" style="stroke:black; stroke-width:1px;" />
<line x1="203.4375" y1="7.5" x2="333.375" y2="32.0" style="stroke:black; stroke-width:1px;" />
<line x1="333.375" y1="39.5" x2="254.75" y2="64.0" style="stroke:black; stroke-width:1px;" />
<line x1="254.75" y1="71.5" x2="211.25" y2="96.0" style="stroke:black; stroke-width:1px;" />
<line x1="211.25" y1="103.5" x2="211.25" y2="128.0" style="stroke:black; stroke-width:1px;" />
<line x1="254.75" y1="71.5" x2="253.25" y2="96.0" style="stroke:black; stroke-width:1px;" />
<line x1="254.75" y1="71.5" x2="298.25" y2="96.0" style="stroke:black; stroke-width:1px;" />
<line x1="298.25" y1="103.5" x2="245.0" y2="128.0" style="stroke:black; stroke-width:1px;" />
<line x1="298.25" y1="103.5" x2="263.5" y2="128.0" style="stroke:black; stroke-width:1px;" />
<line x1="298.25" y1="103.5" x2="307.5" y2="128.0" style="stroke:black; stroke-width:1px;" />
<line x1="307.5" y1="135.5" x2="307.5" y2="160.0" style="stroke:black; stroke-width:1px;" />
<line x1="298.25" y1="103.5" x2="351.5" y2="128.0" style="stroke:black; stroke-width:1px;" />
<line x1="333.375" y1="39.5" x2="412.0" y2="64.0" style="stroke:black; stroke-width:1px;" />
<line x1="412.0" y1="71.5" x2="384.75" y2="96.0" style="stroke:black; stroke-width:1px;" />
<line x1="384.75" y1="103.5" x2="384.75" y2="128.0" style="stroke:black; stroke-width:1px;" />
<line x1="384.75" y1="135.5" x2="344.5" y2="160.0" style="stroke:black; stroke-width:1px;" />
<line x1="384.75" y1="135.5" x2="368.0" y2="160.0" style="stroke:black; stroke-width:1px;" />
<line x1="384.75" y1="135.5" x2="396.5" y2="160.0" style="stroke:black; stroke-width:1px;" />
<line x1="396.5" y1="167.5" x2="367.0" y2="192.0" style="stroke:black; stroke-width:1px;" />
<line x1="367.0" y1="199.5" x2="367.0" y2="224.0" style="stroke:black; stroke-width:1px;" />
<line x1="396.5" y1="167.5" x2="396.5" y2="192.0" style="stroke:black; stroke-width:1px;" />
<line x1="396.5" y1="167.5" x2="426.0" y2="192.0" style="stroke:black; stroke-width:1px;" />
<line x1="426.0" y1="199.5" x2="426.0" y2="224.0" style="stroke:black; stroke-width:1px;" />
<line x1="384.75" y1="135.5" x2="425.0" y2="160.0" style="stroke:black; stroke-width:1px;" />
<line x1="412.0" y1="71.5" x2="439.25" y2="96.0" style="stroke:black; stroke-width:1px;" />
<line x1="439.25" y1="103.5" x2="439.25" y2="128.0" style="stroke:black; stroke-width:1px;" />
<rect x="78.25" y="96.0" width="8.0" height="15.0" style="fill:orange; stroke:rgb(0,0,0);" rx="1"/>
<text x="80" y="105" style="font-family:sans-serif;font-size:10px;">
(
</text>
<rect x="419.25" y="128.0" width="40.0" height="15.0" style="fill:orange; stroke:rgb(0,0,0);" rx="1"/>
<text x="421" y="137" style="font-family:sans-serif;font-size:10px;">
&lt;EOF&gt;
</text>
<rect x="289.0" y="160.0" width="37.0" height="15.0" style="fill:orange; stroke:rgb(0,0,0);" rx="1"/>
<text x="291" y="169" style="font-family:sans-serif;font-size:10px;">
input()
</text>
<rect x="237.0" y="128.0" width="16.0" height="15.0" style="fill:orange; stroke:rgb(0,0,0);" rx="1"/>
<text x="239" y="137" style="font-family:sans-serif;font-size:10px;">
int
</text>
<rect x="362.0" y="224.0" width="10.0" height="15.0" style="fill:orange; stroke:rgb(0,0,0);" rx="1"/>
<text x="364" y="233" style="font-family:sans-serif;font-size:10px;">
a
</text>
<rect x="259.5" y="128.0" width="8.0" height="15.0" style="fill:orange; stroke:rgb(0,0,0);" rx="1"/>
<text x="261" y="137" style="font-family:sans-serif;font-size:10px;">
(
</text>
<rect x="107.75" y="128.0" width="37.0" height="15.0" style="fill:orange; stroke:rgb(0,0,0);" rx="1"/>
<text x="109" y="137" style="font-family:sans-serif;font-size:10px;">
input()
</text>
<rect x="347.5" y="128.0" width="8.0" height="15.0" style="fill:orange; stroke:rgb(0,0,0);" rx="1"/>
<text x="349" y="137" style="font-family:sans-serif;font-size:10px;">
)
</text>
<rect x="82.0" y="64.0" width="70.0" height="15.0" style="fill:orange; stroke:rgb(0,0,0);" rx="1"/>
<text x="84" y="73" style="font-family:sans-serif;font-size:10px;">
right_value:2
</text>
<rect x="353.25" y="96.0" width="63.0" height="15.0" style="fill:orange; stroke:rgb(0,0,0);" rx="1"/>
<text x="355" y="105" style="font-family:sans-serif;font-size:10px;">
statement:2
</text>
<rect x="184.9375" y="0.0" width="37.0" height="15.0" style="fill:orange; stroke:rgb(0,0,0);" rx="1"/>
<text x="186" y="9" style="font-family:sans-serif;font-size:10px;">
prog:2
</text>
<rect x="263.25" y="96.0" width="70.0" height="15.0" style="fill:orange; stroke:rgb(0,0,0);" rx="1"/>
<text x="265" y="105" style="font-family:sans-serif;font-size:10px;">
right_value:2
</text>
<rect x="349.5" y="192.0" width="35.0" height="15.0" style="fill:orange; stroke:rgb(0,0,0);" rx="1"/>
<text x="351" y="201" style="font-family:sans-serif;font-size:10px;">
expr:4
</text>
<rect x="55.75" y="96.0" width="16.0" height="15.0" style="fill:orange; stroke:rgb(0,0,0);" rx="1"/>
<text x="57" y="105" style="font-family:sans-serif;font-size:10px;">
int
</text>
<rect x="91.25" y="96.0" width="70.0" height="15.0" style="fill:orange; stroke:rgb(0,0,0);" rx="1"/>
<text x="93" y="105" style="font-family:sans-serif;font-size:10px;">
right_value:1
</text>
<rect x="166.25" y="96.0" width="8.0" height="15.0" style="fill:orange; stroke:rgb(0,0,0);" rx="1"/>
<text x="168" y="105" style="font-family:sans-serif;font-size:10px;">
)
</text>
<rect x="180.25" y="96.0" width="62.0" height="15.0" style="fill:orange; stroke:rgb(0,0,0);" rx="1"/>
<text x="182" y="105" style="font-family:sans-serif;font-size:10px;">
left_value:1
</text>
<rect x="366.75" y="128.0" width="36.0" height="15.0" style="fill:orange; stroke:rgb(0,0,0);" rx="1"/>
<text x="368" y="137" style="font-family:sans-serif;font-size:10px;">
print:1
</text>
<rect x="248.25" y="96.0" width="10.0" height="15.0" style="fill:orange; stroke:rgb(0,0,0);" rx="1"/>
<text x="250" y="105" style="font-family:sans-serif;font-size:10px;">
=
</text>
<rect x="314.875" y="32.0" width="37.0" height="15.0" style="fill:orange; stroke:rgb(0,0,0);" rx="1"/>
<text x="316" y="41" style="font-family:sans-serif;font-size:10px;">
prog:2
</text>
<rect x="223.25" y="64.0" width="63.0" height="15.0" style="fill:orange; stroke:rgb(0,0,0);" rx="1"/>
<text x="225" y="73" style="font-family:sans-serif;font-size:10px;">
statement:1
</text>
<rect x="42.0" y="32.0" width="63.0" height="15.0" style="fill:orange; stroke:rgb(0,0,0);" rx="1"/>
<text x="44" y="41" style="font-family:sans-serif;font-size:10px;">
statement:1
</text>
<rect x="408.5" y="192.0" width="35.0" height="15.0" style="fill:orange; stroke:rgb(0,0,0);" rx="1"/>
<text x="410" y="201" style="font-family:sans-serif;font-size:10px;">
expr:4
</text>
<rect x="379.0" y="160.0" width="35.0" height="15.0" style="fill:orange; stroke:rgb(0,0,0);" rx="1"/>
<text x="381" y="169" style="font-family:sans-serif;font-size:10px;">
expr:2
</text>
<rect x="421.0" y="224.0" width="10.0" height="15.0" style="fill:orange; stroke:rgb(0,0,0);" rx="1"/>
<text x="423" y="233" style="font-family:sans-serif;font-size:10px;">
b
</text>
<rect x="421.0" y="160.0" width="8.0" height="15.0" style="fill:orange; stroke:rgb(0,0,0);" rx="1"/>
<text x="423" y="169" style="font-family:sans-serif;font-size:10px;">
)
</text>
<rect x="25.0" y="96.0" width="10.0" height="15.0" style="fill:orange; stroke:rgb(0,0,0);" rx="1"/>
<text x="27" y="105" style="font-family:sans-serif;font-size:10px;">
a
</text>
<rect x="393.5" y="64.0" width="37.0" height="15.0" style="fill:orange; stroke:rgb(0,0,0);" rx="1"/>
<text x="395" y="73" style="font-family:sans-serif;font-size:10px;">
prog:2
</text>
<rect x="420.75" y="96.0" width="37.0" height="15.0" style="fill:orange; stroke:rgb(0,0,0);" rx="1"/>
<text x="422" y="105" style="font-family:sans-serif;font-size:10px;">
prog:1
</text>
<rect x="67.0" y="64.0" width="10.0" height="15.0" style="fill:orange; stroke:rgb(0,0,0);" rx="1"/>
<text x="69" y="73" style="font-family:sans-serif;font-size:10px;">
=
</text>
<rect x="206.25" y="128.0" width="10.0" height="15.0" style="fill:orange; stroke:rgb(0,0,0);" rx="1"/>
<text x="208" y="137" style="font-family:sans-serif;font-size:10px;">
b
</text>
<rect x="364.0" y="160.0" width="8.0" height="15.0" style="fill:orange; stroke:rgb(0,0,0);" rx="1"/>
<text x="366" y="169" style="font-family:sans-serif;font-size:10px;">
(
</text>
<rect x="391.5" y="192.0" width="10.0" height="15.0" style="fill:orange; stroke:rgb(0,0,0);" rx="1"/>
<text x="393" y="201" style="font-family:sans-serif;font-size:10px;">
+
</text>
<rect x="272.5" y="128.0" width="70.0" height="15.0" style="fill:orange; stroke:rgb(0,0,0);" rx="1"/>
<text x="274" y="137" style="font-family:sans-serif;font-size:10px;">
right_value:1
</text>
<rect x="-1.0" y="64.0" width="62.0" height="15.0" style="fill:orange; stroke:rgb(0,0,0);" rx="1"/>
<text x="1" y="73" style="font-family:sans-serif;font-size:10px;">
left_value:1
</text>
<rect x="331.5" y="160.0" width="26.0" height="15.0" style="fill:orange; stroke:rgb(0,0,0);" rx="1"/>
<text x="333" y="169" style="font-family:sans-serif;font-size:10px;">
print
</text>
</svg>