<svg width="895.4000000000001" height="455.40000000000003" xmlns="http://www.w3.org/2000/svg"><line x1="231.625" y1="7.5" x2="73.5" y2="32.0" style="stroke:black; stroke-width:1px;" />
<line x1="73.5" y1="39.5" x2="30.0" y2="64.0" style="stroke:black; stroke-width:1px;" />
<line x1="30.0" y1="71.5" x2="30.0" y2="96.0" style="stroke:black; stroke-width:1px;" />
<line x1="73.5" y1="39.5" x2="72.0" y2="64.0" style="stroke:black; stroke-width:1px;" />
<line x1="73.5" y1="39.5" x2="117.0" y2="64.0" style="stroke:black; stroke-width:1px;" />
<line x1="117.0" y1="71.5" x2="63.75" y2="96.0" style="stroke:black; stroke-width:1px;" />
<line x1="117.0" y1="71.5" x2="82.25" y2="96.0" style="stroke:black; stroke-width:1px;" />
<line x1="117.0" y1="71.5" x2="126.25" y2="96.0" style="stroke:black; stroke-width:1px;" />
<line x1="126.25" y1="103.5" x2="126.25" y2="128.0" style="stroke:black; stroke-width:1px;" />
<line x1="117.0" y1="71.5" x2="170.25" y2="96.0" style="stroke:black; stroke-width:1px;" />
<line x1="231.625" y1="7.5" x2="389.75" y2="32.0" style="stroke:black; stroke-width:1px;" />
<line x1="389.75" y1="39.5" x2="254.75" y2="64.0" style="stroke:black; stroke-width:1px;" />
<line x1="254.75" y1="71.5" x2="211.25" y2="96.0" style="stroke:black; stroke-width:1px;" />
<line x1="211.25" y1="103.5" x2="211.25" y2="128.0" style="stroke:black; stroke-width:1px;" />
<line x1="254.75" y1="71.5" x2="253.25" y2="96.0" style="stroke:black; stroke-width:1px;" />
<line x1="254.75" y1="71.5" x2="298.25" y2="96.0" style="stroke:black; stroke-width:1px;" />
<line x1="298.25" y1="103.5" x2="245.0" y2="128.0" style="stroke:black; stroke-width:1px;" />
<line x1="298.25" y1="103.5" x2="263.5" y2="128.0" style="stroke:black; stroke-width:1px;" />
<line x1="298.25" y1="103.5" x2="307.5" y2="128.0" style="stroke:black; stroke-width:1px;" />
<line x1="307.5" y1="135.5" x2="307.5" y2="160.0" style="stroke:black; stroke-width:1px;" />
<line x1="298.25" y1="103.5" x2="351.5" y2="128.0" style="stroke:black; stroke-width:1px;" />
<line x1="389.75" y1="39.5" x2="524.75" y2="64.0" style="stroke:black; stroke-width:1px;" />
<line x1="524.75" y1="71.5" x2="436.0" y2="96.0" style="stroke:black; stroke-width:1px;" />
<line x1="436.0" y1="103.5" x2="392.5" y2="128.0" style="stroke:black; stroke-width:1px;" />
<line x1="392.5" y1="135.5" x2="392.5" y2="160.0" style="stroke:black; stroke-width:1px;" />
<line x1="436.0" y1="103.5" x2="434.5" y2="128.0" style="stroke:black; stroke-width:1px;" />
<line x1="436.0" y1="103.5" x2="479.5" y2="128.0" style="stroke:black; stroke-width:1px;" />
<line x1="479.5" y1="135.5" x2="479.5" y2="160.0" style="stroke:black; stroke-width:1px;" />
<line x1="479.5" y1="167.5" x2="450.0" y2="192.0" style="stroke:black; stroke-width:1px;" />
<line x1="450.0" y1="199.5" x2="450.0" y2="224.0" style="stroke:black; stroke-width:1px;" />
<line x1="479.5" y1="167.5" x2="479.5" y2="192.0" style="stroke:black; stroke-width:1px;" />
<line x1="479.5" y1="167.5" x2="509.0" y2="192.0" style="stroke:black; stroke-width:1px;" />
<line x1="509.0" y1="199.5" x2="509.0" y2="224.0" style="stroke:black; stroke-width:1px;" />
<line x1="524.75" y1="71.5" x2="613.5" y2="96.0" style="stroke:black; stroke-width:1px;" />
<line x1="613.5" y1="103.5" x2="586.25" y2="128.0" style="stroke:black; stroke-width:1px;" />
<line x1="586.25" y1="135.5" x2="586.25" y2="160.0" style="stroke:black; stroke-width:1px;" />
<line x1="586.25" y1="167.5" x2="546.0" y2="192.0" style="stroke:black; stroke-width:1px;" />
<line x1="586.25" y1="167.5" x2="569.5" y2="192.0" style="stroke:black; stroke-width:1px;" />
<line x1="586.25" y1="167.5" x2="598.0" y2="192.0" style="stroke:black; stroke-width:1px;" />
<line x1="598.0" y1="199.5" x2="565.5" y2="224.0" style="stroke:black; stroke-width:1px;" />
<line x1="565.5" y1="231.5" x2="536.0" y2="256.0" style="stroke:black; stroke-width:1px;" />
<line x1="536.0" y1="263.5" x2="506.5" y2="288.0" style="stroke:black; stroke-width:1px;" />
<line x1="506.5" y1="295.5" x2="506.5" y2="320.0" style="stroke:black; stroke-width:1px;" />
<line x1="536.0" y1="263.5" x2="536.0" y2="288.0" style="stroke:black; stroke-width:1px;" />
<line x1="536.0" y1="263.5" x2="565.5" y2="288.0" style="stroke:black; stroke-width:1px;" />
<line x1="565.5" y1="295.5" x2="565.5" y2="320.0" style="stroke:black; stroke-width:1px;" />
<line x1="565.5" y1="231.5" x2="565.5" y2="256.0" style="stroke:black; stroke-width:1px;" />
<line x1="565.5" y1="231.5" x2="595.0" y2="256.0" style="stroke:black; stroke-width:1px;" />
<line x1="595.0" y1="263.5" x2="595.0" y2="288.0" style="stroke:black; stroke-width:1px;" />
<line x1="598.0" y1="199.5" x2="598.0" y2="224.0" style="stroke:black; stroke-width:1px;" />
<line x1="598.0" y1="199.5" x2="630.5" y2="224.0" style="stroke:black; stroke-width:1px;" />
<line x1="630.5" y1="231.5" x2="630.5" y2="256.0" style="stroke:black; stroke-width:1px;" />
<line x1="586.25" y1="167.5" x2="626.5" y2="192.0" style="stroke:black; stroke-width:1px;" />
<line x1="613.5" y1="103.5" x2="640.75" y2="128.0" style="stroke:black; stroke-width:1px;" />
<line x1="640.75" y1="135.5" x2="640.75" y2="160.0" style="stroke:black; stroke-width:1px;" />
<rect x="387.5" y="160.0" width="10.0" height="15.0" style="fill:orange; stroke:rgb(0,0,0);" rx="1"/>
<text x="389" y="169" style="font-family:sans-serif;font-size:10px;">
c
</text>
<rect x="580.5" y="192.0" width="35.0" height="15.0" style="fill:orange; stroke:rgb(0,0,0);" rx="1"/>
<text x="582" y="201" style="font-family:sans-serif;font-size:10px;">
expr:2
</text>
<rect x="237.0" y="128.0" width="16.0" height="15.0" style="fill:orange; stroke:rgb(0,0,0);" rx="1"/>
<text x="239" y="137" style="font-family:sans-serif;font-size:10px;">
int
</text>
<rect x="259.5" y="128.0" width="8.0" height="15.0" style="fill:orange; stroke:rgb(0,0,0);" rx="1"/>
<text x="261" y="137" style="font-family:sans-serif;font-size:10px;">
(
</text>
<rect x="622.5" y="192.0" width="8.0" height="15.0" style="fill:orange; stroke:rgb(0,0,0);" rx="1"/>
<text x="624" y="201" style="font-family:sans-serif;font-size:10px;">
)
</text>
<rect x="82.0" y="64.0" width="70.0" height="15.0" style="fill:orange; stroke:rgb(0,0,0);" rx="1"/>
<text x="84" y="73" style="font-family:sans-serif;font-size:10px;">
right_value:2
</text>
<rect x="548.0" y="224.0" width="35.0" height="15.0" style="fill:orange; stroke:rgb(0,0,0);" rx="1"/>
<text x="550" y="233" style="font-family:sans-serif;font-size:10px;">
expr:2
</text>
<rect x="622.25" y="128.0" width="37.0" height="15.0" style="fill:orange; stroke:rgb(0,0,0);" rx="1"/>
<text x="624" y="137" style="font-family:sans-serif;font-size:10px;">
prog:1
</text>
<rect x="531.0" y="288.0" width="10.0" height="15.0" style="fill:orange; stroke:rgb(0,0,0);" rx="1"/>
<text x="533" y="297" style="font-family:sans-serif;font-size:10px;">
+
</text>
<rect x="577.5" y="256.0" width="35.0" height="15.0" style="fill:orange; stroke:rgb(0,0,0);" rx="1"/>
<text x="579" y="265" style="font-family:sans-serif;font-size:10px;">
expr:4
</text>
<rect x="506.25" y="64.0" width="37.0" height="15.0" style="fill:orange; stroke:rgb(0,0,0);" rx="1"/>
<text x="508" y="73" style="font-family:sans-serif;font-size:10px;">
prog:2
</text>
<rect x="166.25" y="96.0" width="8.0" height="15.0" style="fill:orange; stroke:rgb(0,0,0);" rx="1"/>
<text x="168" y="105" style="font-family:sans-serif;font-size:10px;">
)
</text>
<rect x="213.125" y="0.0" width="37.0" height="15.0" style="fill:orange; stroke:rgb(0,0,0);" rx="1"/>
<text x="215" y="9" style="font-family:sans-serif;font-size:10px;">
prog:2
</text>
<rect x="223.25" y="64.0" width="63.0" height="15.0" style="fill:orange; stroke:rgb(0,0,0);" rx="1"/>
<text x="225" y="73" style="font-family:sans-serif;font-size:10px;">
statement:1
</text>
<rect x="42.0" y="32.0" width="63.0" height="15.0" style="fill:orange; stroke:rgb(0,0,0);" rx="1"/>
<text x="44" y="41" style="font-family:sans-serif;font-size:10px;">
statement:1
</text>
<rect x="504.0" y="224.0" width="10.0" height="15.0" style="fill:orange; stroke:rgb(0,0,0);" rx="1"/>
<text x="506" y="233" style="font-family:sans-serif;font-size:10px;">
7
</text>
<rect x="462.0" y="160.0" width="35.0" height="15.0" style="fill:orange; stroke:rgb(0,0,0);" rx="1"/>
<text x="464" y="169" style="font-family:sans-serif;font-size:10px;">
expr:2
</text>
<rect x="501.5" y="320.0" width="10.0" height="15.0" style="fill:orange; stroke:rgb(0,0,0);" rx="1"/>
<text x="503" y="329" style="font-family:sans-serif;font-size:10px;">
a
</text>
<rect x="568.25" y="160.0" width="36.0" height="15.0" style="fill:orange; stroke:rgb(0,0,0);" rx="1"/>
<text x="570" y="169" style="font-family:sans-serif;font-size:10px;">
print:1
</text>
<rect x="371.25" y="32.0" width="37.0" height="15.0" style="fill:orange; stroke:rgb(0,0,0);" rx="1"/>
<text x="373" y="41" style="font-family:sans-serif;font-size:10px;">
prog:2
</text>
<rect x="67.0" y="64.0" width="10.0" height="15.0" style="fill:orange; stroke:rgb(0,0,0);" rx="1"/>
<text x="69" y="73" style="font-family:sans-serif;font-size:10px;">
=
</text>
<rect x="206.25" y="128.0" width="10.0" height="15.0" style="fill:orange; stroke:rgb(0,0,0);" rx="1"/>
<text x="208" y="137" style="font-family:sans-serif;font-size:10px;">
b
</text>
<rect x="432.5" y="192.0" width="35.0" height="15.0" style="fill:orange; stroke:rgb(0,0,0);" rx="1"/>
<text x="434" y="201" style="font-family:sans-serif;font-size:10px;">
expr:3
</text>
<rect x="518.5" y="256.0" width="35.0" height="15.0" style="fill:orange; stroke:rgb(0,0,0);" rx="1"/>
<text x="520" y="265" style="font-family:sans-serif;font-size:10px;">
expr:2
</text>
<rect x="272.5" y="128.0" width="70.0" height="15.0" style="fill:orange; stroke:rgb(0,0,0);" rx="1"/>
<text x="274" y="137" style="font-family:sans-serif;font-size:10px;">
right_value:1
</text>
<rect x="-1.0" y="64.0" width="62.0" height="15.0" style="fill:orange; stroke:rgb(0,0,0);" rx="1"/>
<text x="1" y="73" style="font-family:sans-serif;font-size:10px;">
left_value:1
</text>
<rect x="593.0" y="224.0" width="10.0" height="15.0" style="fill:orange; stroke:rgb(0,0,0);" rx="1"/>
<text x="595" y="233" style="font-family:sans-serif;font-size:10px;">
+
</text>
<rect x="78.25" y="96.0" width="8.0" height="15.0" style="fill:orange; stroke:rgb(0,0,0);" rx="1"/>
<text x="80" y="105" style="font-family:sans-serif;font-size:10px;">
(
</text>
<rect x="533.0" y="192.0" width="26.0" height="15.0" style="fill:orange; stroke:rgb(0,0,0);" rx="1"/>
<text x="535" y="201" style="font-family:sans-serif;font-size:10px;">
print
</text>
<rect x="289.0" y="160.0" width="37.0" height="15.0" style="fill:orange; stroke:rgb(0,0,0);" rx="1"/>
<text x="291" y="169" style="font-family:sans-serif;font-size:10px;">
input()
</text>
<rect x="429.5" y="128.0" width="10.0" height="15.0" style="fill:orange; stroke:rgb(0,0,0);" rx="1"/>
<text x="431" y="137" style="font-family:sans-serif;font-size:10px;">
=
</text>
<rect x="560.5" y="320.0" width="10.0" height="15.0" style="fill:orange; stroke:rgb(0,0,0);" rx="1"/>
<text x="562" y="329" style="font-family:sans-serif;font-size:10px;">
b
</text>
<rect x="613.0" y="224.0" width="35.0" height="15.0" style="fill:orange; stroke:rgb(0,0,0);" rx="1"/>
<text x="615" y="233" style="font-family:sans-serif;font-size:10px;">
expr:3
</text>
<rect x="107.75" y="128.0" width="37.0" height="15.0" style="fill:orange; stroke:rgb(0,0,0);" rx="1"/>
<text x="109" y="137" style="font-family:sans-serif;font-size:10px;">
input()
</text>
<rect x="347.5" y="128.0" width="8.0" height="15.0" style="fill:orange; stroke:rgb(0,0,0);" rx="1"/>
<text x="349" y="137" style="font-family:sans-serif;font-size:10px;">
)
</text>
<rect x="404.5" y="96.0" width="63.0" height="15.0" style="fill:orange; stroke:rgb(0,0,0);" rx="1"/>
<text x="406" y="105" style="font-family:sans-serif;font-size:10px;">
statement:1
</text>
<rect x="263.25" y="96.0" width="70.0" height="15.0" style="fill:orange; stroke:rgb(0,0,0);" rx="1"/>
<text x="265" y="105" style="font-family:sans-serif;font-size:10px;">
right_value:2
</text>
<rect x="445.0" y="224.0" width="10.0" height="15.0" style="fill:orange; stroke:rgb(0,0,0);" rx="1"/>
<text x="447" y="233" style="font-family:sans-serif;font-size:10px;">
5
</text>
<rect x="548.0" y="288.0" width="35.0" height="15.0" style="fill:orange; stroke:rgb(0,0,0);" rx="1"/>
<text x="550" y="297" style="font-family:sans-serif;font-size:10px;">
expr:4
</text>
<rect x="619.0" y="256.0" width="23.0" height="15.0" style="fill:orange; stroke:rgb(0,0,0);" rx="1"/>
<text x="621" y="265" style="font-family:sans-serif;font-size:10px;">
239
</text>
<rect x="55.75" y="96.0" width="16.0" height="15.0" style="fill:orange; stroke:rgb(0,0,0);" rx="1"/>
<text x="57" y="105" style="font-family:sans-serif;font-size:10px;">
int
</text>
<rect x="560.5" y="256.0" width="10.0" height="15.0" style="fill:orange; stroke:rgb(0,0,0);" rx="1"/>
<text x="562" y="265" style="font-family:sans-serif;font-size:10px;">
+
</text>
<rect x="91.25" y="96.0" width="70.0" height="15.0" style="fill:orange; stroke:rgb(0,0,0);" rx="1"/>
<text x="93" y="105" style="font-family:sans-serif;font-size:10px;">
right_value:1
</text>
<rect x="180.25" y="96.0" width="62.0" height="15.0" style="fill:orange; stroke:rgb(0,0,0);" rx="1"/>
<text x="182" y="105" style="font-family:sans-serif;font-size:10px;">
left_value:1
</text>
<rect x="444.5" y="128.0" width="70.0" height="15.0" style="fill:orange; stroke:rgb(0,0,0);" rx="1"/>
<text x="446" y="137" style="font-family:sans-serif;font-size:10px;">
right_value:3
</text>
<rect x="248.25" y="96.0" width="10.0" height="15.0" style="fill:orange; stroke:rgb(0,0,0);" rx="1"/>
<text x="250" y="105" style="font-family:sans-serif;font-size:10px;">
=
</text>
<rect x="489.0" y="288.0" width="35.0" height="15.0" style="fill:orange; stroke:rgb(0,0,0);" rx="1"/>
<text x="491" y="297" style="font-family:sans-serif;font-size:10px;">
expr:4
</text>
<rect x="554.75" y="128.0" width="63.0" height="15.0" style="fill:orange; stroke:rgb(0,0,0);" rx="1"/>
<text x="556" y="137" style="font-family:sans-serif;font-size:10px;">
statement:2
</text>
<rect x="474.5" y="192.0" width="10.0" height="15.0" style="fill:orange; stroke:rgb(0,0,0);" rx="1"/>
<text x="476" y="201" style="font-family:sans-serif;font-size:10px;">
+
</text>
<rect x="491.5" y="192.0" width="35.0" height="15.0" style="fill:orange; stroke:rgb(0,0,0);" rx="1"/>
<text x="493" y="201" style="font-family:sans-serif;font-size:10px;">
expr:3
</text>
<rect x="25.0" y="96.0" width="10.0" height="15.0" style="fill:orange; stroke:rgb(0,0,0);" rx="1"/>
<text x="27" y="105" style="font-family:sans-serif;font-size:10px;">
a
</text>
<rect x="565.5" y="192.0" width="8.0" height="15.0" style="fill:orange; stroke:rgb(0,0,0);" rx="1"/>
<text x="567" y="201" style="font-family:sans-serif;font-size:10px;">
(
</text>
<rect x="361.5" y="128.0" width="62.0" height="15.0" style="fill:orange; stroke:rgb(0,0,0);" rx="1"/>
<text x="363" y="137" style="font-family:sans-serif;font-size:10px;">
left_value:1
</text>
<rect x="595.0" y="96.0" width="37.0" height="15.0" style="fill:orange; stroke:rgb(0,0,0);" rx="1"/>
<text x="597" y="105" style="font-family:sans-serif;font-size:10px;">
prog:2
</text>
<rect x="590.0" y="288.0" width="10.0" height="15.0" style="fill:orange; stroke:rgb(0,0,0);" rx="1"/>
<text x="592" y="297" style="font-family:sans-serif;font-size:10px;">
c
</text>
<rect x="620.75" y="160.0" width="40.0" height="15.0" style="fill:orange; stroke:rgb(0,0,0);" rx="1"/>
<text x="622" y="169" style="font-family:sans-serif;font-size:10px;">
&lt;EOF&gt;
</text>
</svg>